<?xml version="1.0" encoding="UTF-8" standalone="no"?>
<!DOCTYPE svg PUBLIC "-//W3C//DTD SVG 1.1//EN" "http://www.w3.org/Graphics/SVG/1.1/DTD/svg11.dtd">
<svg width="100%" height="100%" viewBox="0 0 128 128" version="1.1" xmlns="http://www.w3.org/2000/svg" xmlns:xlink="http://www.w3.org/1999/xlink" xml:space="preserve" xmlns:serif="http://www.serif.com/" style="fill-rule:evenodd;clip-rule:evenodd;stroke-linejoin:round;stroke-miterlimit:2;">
    <g transform="matrix(0.937576,0,0,0.937576,3.93313,0.978908)">
        <g id="Layer2">
            <g>
                <g transform="matrix(1,0,0,1,0.239185,-0.289137)">
                    <path d="M70.611,25.164C69.948,23.148 68.066,21.786 65.944,21.786C64.699,21.786 63.301,21.786 62.056,21.786C59.934,21.786 58.052,23.148 57.389,25.164C53.588,36.719 41.132,74.589 37.331,86.143C36.668,88.159 34.786,89.521 32.664,89.521C30.055,89.521 26.566,89.521 24.19,89.521C22.52,89.521 20.964,90.37 20.06,91.774C19.268,93.003 18.236,94.605 17.185,96.237C16.212,97.748 16.141,99.671 17.002,101.249C17.863,102.828 19.544,103.502 21.315,103.81C40.807,107.19 86.708,107.419 106.2,103.81C107.968,103.482 109.652,102.828 110.513,101.249C111.374,99.671 111.304,97.748 110.33,96.237C109.279,94.605 108.247,93.003 107.455,91.774C106.551,90.37 104.995,89.521 103.325,89.521C101.066,89.521 97.813,89.521 95.336,89.521C93.214,89.521 91.332,88.159 90.669,86.143C86.868,74.589 74.412,36.719 70.611,25.164ZM81.345,80.039C80.725,77.711 78.821,75.599 76.813,76.126C70.931,77.668 57.846,77.69 51.187,76.126C49.166,75.651 47.275,77.711 46.655,80.039C46.176,81.841 45.591,84.038 45.036,86.124C44.585,87.818 44.848,89.662 45.742,91.092C46.637,92.521 48.12,92.934 49.568,93.366C57.417,95.705 70.583,95.686 78.432,93.366C79.881,92.937 81.363,92.521 82.258,91.092C83.152,89.662 83.415,87.818 82.964,86.124C82.409,84.038 81.824,81.841 81.345,80.039ZM74.645,56.263C73.946,54.11 71.787,52.635 69.337,52.635C65.121,52.635 62.401,52.635 58.185,52.635C55.735,52.635 53.576,54.11 52.876,56.263C52.546,57.279 52.177,58.415 51.81,59.544C51.311,61.081 51.632,62.744 52.678,64.029C53.723,65.315 55.374,65.946 57.119,66.072C62.652,66.471 65.647,66.45 70.403,66.072C72.147,65.934 73.799,65.315 74.844,64.029C75.889,62.744 76.211,61.081 75.712,59.544C75.345,58.415 74.976,57.279 74.645,56.263ZM67.473,30.086C67.051,28.826 65.628,27.949 64.001,27.949C64,27.949 64,27.949 63.999,27.949C62.372,27.949 60.949,28.826 60.527,30.086C59.694,32.574 58.321,36.679 57.441,39.309C57.242,39.903 57.399,40.537 57.865,41.024C58.331,41.512 59.053,41.798 59.819,41.798C62.296,41.798 65.704,41.798 68.181,41.798C68.947,41.798 69.669,41.512 70.135,41.024C70.601,40.537 70.758,39.903 70.559,39.309C69.679,36.679 68.306,32.574 67.473,30.086Z" style="fill:white;"/>
                </g>
                <g transform="matrix(1.02558,0,0,1,-1.39202,4.69316)">
                    <path d="M110.586,103.317C110.739,103.036 110.378,97.423 110.378,97.423C110.378,97.423 108.516,100.483 106.2,101.022C91.542,104.436 36.446,104.404 21.315,101.022C18.994,100.504 17.137,97.667 17.137,97.667C17.137,97.667 16.938,103.066 17.075,103.317C17.936,104.895 19.612,105.599 21.388,105.878C41.593,109.045 87.488,109.02 106.273,105.878C108.046,105.581 109.725,104.895 110.586,103.317Z" style="fill:white;"/>
                </g>
            </g>
        </g>
    </g>
</svg>