<?xml version="1.0" encoding="UTF-8" standalone="no"?>
<!DOCTYPE svg PUBLIC "-//W3C//DTD SVG 1.1//EN" "http://www.w3.org/Graphics/SVG/1.1/DTD/svg11.dtd">
<svg width="100%" height="100%" viewBox="0 0 64 64" version="1.1" xmlns="http://www.w3.org/2000/svg" xmlns:xlink="http://www.w3.org/1999/xlink" xml:space="preserve" xmlns:serif="http://www.serif.com/" style="fill-rule:evenodd;clip-rule:evenodd;stroke-linejoin:round;stroke-miterlimit:2;">
    <rect x="26.778" y="15.452" width="4.424" height="11.275" style="fill:#e6e6e6;"/>
    <path id="path7" d="M25.725,62.474l-0.928,-0.408l-0.918,-0.594c-1.171,-0.759 -15.826,-11.102 -16.845,-11.889l-0.766,-0.592l-0.359,-0.678l-0.004,-0.792l0.204,-0.175c0.112,-0.096 0.43,-0.263 0.705,-0.371l0.5,-0.195l5.151,-1.257c2.833,-0.691 5.541,-1.35 6.018,-1.464c0.477,-0.114 0.886,-0.224 0.909,-0.244c0.023,-0.019 0.189,-0.704 0.368,-1.521c0.18,-0.817 0.392,-1.691 0.473,-1.944c0.08,-0.252 0.281,-1.077 0.445,-1.834c0.164,-0.757 0.339,-1.545 0.389,-1.751c0.05,-0.207 0.225,-0.995 0.388,-1.751c0.163,-0.757 0.338,-1.545 0.387,-1.751c0.05,-0.207 0.117,-0.582 0.151,-0.834c0.058,-0.438 0.217,-1.204 0.634,-3.044c0.236,-1.042 0.302,-1.338 0.672,-3.043c0.165,-0.757 0.36,-1.564 0.435,-1.793c0.075,-0.229 0.274,-1.036 0.442,-1.793c0.169,-0.756 0.388,-1.732 0.488,-2.168c0.1,-0.435 0.319,-1.411 0.486,-2.168c0.168,-0.756 0.367,-1.646 0.443,-1.976c0.076,-0.331 0.138,-0.718 0.138,-0.86c0,-0.142 0.043,-0.416 0.094,-0.608c0.052,-0.192 0.23,-0.969 0.396,-1.725c0.166,-0.757 0.384,-1.733 0.485,-2.168c0.1,-0.436 0.317,-1.412 0.481,-2.168c0.165,-0.757 0.34,-1.545 0.39,-1.751c0.05,-0.207 0.227,-0.995 0.394,-1.751c0.454,-2.056 0.758,-3.342 0.869,-3.678l0.1,-0.3l0.408,-0.317l3.884,0l0.443,0.443l0.152,0.571c0.084,0.314 0.247,1.002 0.362,1.529c0.115,0.528 0.289,1.316 0.386,1.752c0.098,0.435 0.273,1.223 0.389,1.751c0.117,0.527 0.291,1.315 0.389,1.751c0.256,1.144 0.554,2.491 0.783,3.543c0.11,0.505 0.284,1.274 0.386,1.71c0.102,0.436 0.227,1.073 0.278,1.417c0.103,0.697 1.81,8.404 1.949,8.797c0.083,0.237 0.287,1.133 0.98,4.295c0.165,0.756 0.382,1.732 0.481,2.168c0.099,0.435 0.209,0.979 0.245,1.209c0.103,0.666 1.585,7.417 1.84,8.38c0.128,0.481 0.328,1.326 0.446,1.876c0.118,0.55 0.244,1.111 0.281,1.246l0.067,0.245l6.07,2.275c3.338,1.251 6.558,2.482 7.156,2.736l1.086,0.461l0.694,0.561l-0.001,0.898l-0.375,0.528l-0.431,0.217c-0.237,0.119 -1.082,0.474 -1.877,0.789c-0.796,0.315 -2.955,1.173 -4.799,1.907c-17.775,7.073 -20.601,8.185 -21.371,8.414l-0.74,0.219l-1.848,0.076l-0.928,-0.408Zm2.855,-38.133c-0,-0 0.092,-0.534 0.163,-0.789l0.13,-0.463c-0,-0 0.322,-1.323 0.4,-1.959c0.035,-0.275 0.109,-0.704 0.166,-0.953c0.095,-0.413 0.16,-0.865 0.186,-1.298c0.006,-0.092 0.071,-0.542 0.146,-1.001c0.074,-0.458 0.151,-1.046 0.17,-1.307l0.036,-0.473l-0.203,-0.047c-0.112,-0.025 -0.564,-0.047 -1.004,-0.048l-0.8,-0.001l-0.045,0.188c-0.025,0.103 -0.075,0.713 -0.111,1.355c-0.036,0.642 -0.08,1.374 -0.098,1.626c-0.018,0.252 -0.06,1.474 -0.093,2.715l-0.062,2.256l0.189,0.532l0.497,0l0.333,-0.333Z" style="fill:#e4e1dd;fill-rule:nonzero;"/>
    <path id="path6" d="M26.775,62.784l-0.366,-0.061l-1.424,-0.629l-0.931,-0.595c-1.022,-0.654 -16.451,-11.535 -17.216,-12.141l-0.476,-0.377l-0.356,-0.668l-0.004,-0.78l0.156,-0.134c0.473,-0.405 0.855,-0.509 9.854,-2.672c1.845,-0.443 3.384,-0.831 3.421,-0.861c0.066,-0.054 0.15,-0.387 0.564,-2.223l0.206,-0.917l0.305,-0.402l0.472,0.854l0.996,0.68l0.707,0.288c1.309,0.533 3.301,0.934 5.624,1.133l1.263,0.108l3.888,-0.004l0.777,-0.104c0.428,-0.057 0.854,-0.123 0.948,-0.146l0.17,-0.042l0.486,-1.651l-0,-0.165c-0,-0.09 0.039,-0.185 0.086,-0.21c0.092,-0.049 0.169,-0.345 0.257,-0.99c0.03,-0.22 0.103,-0.501 0.164,-0.625l0.126,-0.892c0.009,-0.367 0.049,-0.827 0.089,-1.021l0.072,-0.354l0.072,-1.505l0.203,-1.102l0,-0.479l-0.121,0c-0.067,0.001 -0.603,0.059 -1.191,0.129l-1.069,0.128l-2.527,0.047l-2.527,0.048l-1.652,-0.183c-2.656,-0.293 -3.848,-0.542 -4.997,-1.041l-0.521,-0.227l-0.184,-0.152c-0.026,-0.524 0.005,-0.898 0.112,-1.334c0.05,-0.207 0.228,-0.995 0.395,-1.751c0.168,-0.757 0.427,-1.92 0.576,-2.585c0.15,-0.665 0.324,-1.472 0.388,-1.793l0.115,-0.584l0.181,-0.333c0.099,-0.184 0.226,-0.54 0.281,-0.792c0.356,-1.634 1.098,-4.933 1.172,-5.212c0.048,-0.183 0.138,-0.577 0.2,-0.875c0.061,-0.299 0.172,-0.789 0.246,-1.089l0.135,-0.547l-0.108,-0.574l0.257,-1.126c0.142,-0.619 0.343,-1.51 0.446,-1.98c0.378,-1.719 0.58,-2.625 1.257,-5.649c0.379,-1.697 0.755,-3.386 0.836,-3.753c0.08,-0.367 0.212,-0.845 0.294,-1.063l0.149,-0.396l0.417,-0.25l3.659,-0l0.463,0.398l0.107,0.34c0.059,0.187 0.193,0.735 0.298,1.218c0.106,0.484 0.279,1.273 0.386,1.755c0.107,0.481 0.282,1.269 0.389,1.751c0.107,0.481 0.28,1.26 0.384,1.73c0.105,0.47 0.282,1.267 0.393,1.772c0.376,1.692 0.573,2.579 0.782,3.502c0.113,0.504 0.249,1.198 0.301,1.542c0.132,0.877 0.265,1.583 0.472,2.502c0.098,0.436 0.273,1.224 0.389,1.751c0.116,0.527 0.292,1.315 0.39,1.751c0.098,0.436 0.274,1.242 0.391,1.793c0.117,0.55 0.271,1.15 0.343,1.334c0.126,0.32 0.364,1.324 1.016,4.294c0.166,0.757 0.387,1.748 0.491,2.202c0.104,0.454 0.213,1.036 0.241,1.292c0.058,0.521 0.148,0.991 0.423,2.218c0.103,0.459 0.282,1.265 0.398,1.793c0.117,0.527 0.292,1.315 0.39,1.751c0.098,0.435 0.253,1.13 0.344,1.542c0.091,0.413 0.225,0.92 0.297,1.126c0.073,0.206 0.269,1.013 0.436,1.793c0.167,0.779 0.338,1.449 0.38,1.487c0.041,0.039 2.904,1.136 6.362,2.438c3.457,1.303 6.677,2.542 7.155,2.753l0.868,0.385l0.582,0.467l-0.001,0.892l-0.385,0.542l-1.483,0.618c-0.816,0.34 -4.436,1.79 -8.044,3.222c-3.608,1.431 -9.04,3.589 -12.07,4.796c-3.031,1.206 -5.926,2.326 -6.434,2.49l-0.924,0.297l-0.661,0.082c-0.732,0.09 -0.708,0.09 -1.221,0.005l-0,-0Zm8.283,-37.685c0.292,-0.048 0.765,-0.128 1.05,-0.179l0.341,-0.052l-0.064,-0.291l-0.074,-1.44l-0.029,-0.45l-0.045,-0.334c-0.057,-0.122 -0.124,-0.476 -0.149,-0.786c-0.025,-0.311 -0.074,-0.605 -0.11,-0.654c-0.035,-0.049 -0.085,-0.34 -0.111,-0.645l-0.047,-0.555l-0.069,-0.433l-0.106,-0.659c-0.058,-0.363 -0.123,-0.828 -0.146,-1.034c-0.037,-0.343 -0.067,-0.524 -0.212,-1.3l-0.049,-0.258l-4.097,-0.056c-2.254,-0.03 -4.318,-0.078 -4.586,-0.106l-0.489,-0.05l-0.474,2.198c-0.26,1.209 -0.679,3.13 -0.93,4.268l-0.457,2.07l0.136,0.117c0.279,0.24 2.066,0.588 3.771,0.735c0.214,0.019 1.745,0.022 3.402,0.007l3.013,-0.026l0.531,-0.087Z" style="fill:#d8d5d2;fill-rule:nonzero;"/>
    <path id="path5" d="M25.825,62.436l-0.803,-0.345l-1.128,-0.732c-0.961,-0.625 -9.069,-6.326 -15.442,-10.859l-1.874,-1.333l-0.486,-0.711l-0.118,-0.857l0.436,-0.398l0.462,-0.17c0.385,-0.142 8.171,-2.077 11.642,-2.893l0.996,-0.234l0.045,-0.13c0.025,-0.071 0.182,-0.745 0.349,-1.496c0.413,-1.856 0.373,-1.8 0.851,-1.218l0.309,0.377l0.587,0.325c0.323,0.179 0.925,0.446 1.337,0.594l0.75,0.267l1.069,0.232c1.439,0.311 2.851,0.482 4.934,0.598l1.738,0.097l3.172,-0.198l2.403,-0.35l2.235,-0.578l0.68,-0.28c0.375,-0.153 0.89,-0.416 1.146,-0.584l0.464,-0.304l0.497,-0.675l0.173,0.149l0.341,1.532c0.187,0.843 0.356,1.545 0.375,1.561c0.019,0.017 2.742,1.046 6.051,2.288c3.31,1.241 6.543,2.477 7.184,2.746l1.166,0.488l0.655,0.55l-0.103,0.974l-0.179,0.171c-0.293,0.282 -0.763,0.503 -2.754,1.296c-2.951,1.175 -9.734,3.873 -13.218,5.257c-1.737,0.69 -5.061,2.011 -7.386,2.936l-4.228,1.682l-2.003,0.57l-1.521,-0l-0.804,-0.345Zm2.822,-28.14c-0.187,-0.019 -0.887,-0.094 -1.555,-0.167l-1.215,-0.133l-2.18,-0.47l-1.185,-0.542l-0.377,-0.411l0.001,-0.218c0.001,-0.225 0.117,-0.775 1.077,-5.096c0.107,-0.481 0.284,-1.288 0.392,-1.793c0.109,-0.504 0.233,-0.948 0.276,-0.986l0.078,-0.069l0.816,0.357l0.843,0.156c1.172,0.218 2.385,0.32 4.535,0.383l1.847,0.055l3.167,-0.192l2.265,-0.332l1.058,-0.415l0.239,0.17l0.055,0.312c0.03,0.171 0.147,0.724 0.26,1.228c0.113,0.505 0.332,1.499 0.487,2.21c0.155,0.711 0.416,1.903 0.58,2.649l0.299,1.356l-0.123,0.421l-0.31,0.202c-0.17,0.112 -0.565,0.3 -0.878,0.419l-0.57,0.216l-0.98,0.203c-0.54,0.111 -1.44,0.263 -2.002,0.336l-1.02,0.134l-2.77,0.025c-1.523,0.014 -2.923,0.01 -3.11,-0.008l-0,-0Zm0.292,-18.377c-0.936,-0.033 -1.973,-0.088 -2.304,-0.122l-0.603,-0.06l-0.216,-0.223l0.301,-1.361c0.165,-0.749 0.341,-1.53 0.391,-1.736c0.05,-0.207 0.227,-0.995 0.393,-1.751c0.166,-0.757 0.384,-1.733 0.484,-2.168c0.191,-0.832 0.372,-1.648 0.872,-3.919c0.559,-2.539 0.602,-2.702 0.798,-3.055l0.099,-0.179l0.474,-0.185l3.305,-0l0.557,0.247l0.1,0.273c0.119,0.325 0.382,1.456 0.984,4.233c0.164,0.757 0.34,1.545 0.39,1.751c0.051,0.206 0.226,0.994 0.389,1.751c0.163,0.757 0.338,1.545 0.389,1.751c0.05,0.206 0.226,0.994 0.391,1.751c0.165,0.757 0.365,1.654 0.444,1.995l0.145,0.618l-0.27,0.233l-0.963,0.071c-0.529,0.039 -1.837,0.088 -2.906,0.108l-1.944,0.037l-1.7,-0.06Z" style="fill:#eba79b;fill-rule:nonzero;"/>
    <path id="path4" d="M25.849,62.362l-0.78,-0.335l-1.005,-0.645c-0.553,-0.355 -4.504,-3.115 -8.781,-6.134l-7.775,-5.489l-1.194,-1.033l-0.107,-0.332c-0.059,-0.182 -0.107,-0.45 -0.107,-0.596l-0.001,-0.265l0.248,-0.167c0.494,-0.334 0.671,-0.38 10.2,-2.679c1.497,-0.362 2.808,-0.669 2.915,-0.684l0.194,-0.028l0.109,-0.499c0.059,-0.274 0.206,-0.949 0.325,-1.5c0.118,-0.55 0.233,-1.015 0.253,-1.033c0.021,-0.018 0.314,0.189 0.651,0.459l0.613,0.491l0.677,0.282c1.822,0.761 4.047,1.168 7.415,1.358l1.781,0.1l3.179,-0.198l1.149,-0.167c0.632,-0.092 1.63,-0.281 2.218,-0.42l1.069,-0.253l1.958,-0.816l1.082,-0.928l0.053,0.187c0.029,0.103 0.144,0.619 0.256,1.147c0.111,0.527 0.248,1.128 0.304,1.334l0.1,0.375l0.796,0.285c0.438,0.157 1.715,0.632 2.837,1.054c1.123,0.423 3.659,1.378 5.637,2.123c1.978,0.744 3.933,1.498 4.344,1.675l0.748,0.322l0.714,0.538l-0.103,0.972l-0.129,0.133c-0.307,0.318 0.349,0.051 -19.569,7.97c-2.192,0.872 -4.641,1.847 -5.443,2.167c-2.052,0.821 -3.372,1.292 -4.03,1.438l-0.566,0.126l-1.455,0l-0.78,-0.335Zm2.701,-28.152c-1.728,-0.181 -2.724,-0.317 -3.557,-0.487l-0.98,-0.201l-1.149,-0.435l-0.632,-0.524l0.001,-0.213c0.001,-0.193 0.127,-0.804 0.68,-3.298c0.102,-0.459 0.298,-1.359 0.436,-2.001c0.139,-0.642 0.316,-1.438 0.394,-1.769c0.078,-0.33 0.142,-0.621 0.142,-0.646c-0,-0.078 0.345,-0.049 0.445,0.037c0.053,0.045 0.445,0.159 0.87,0.253l0.774,0.17l1.167,0.117c0.641,0.064 1.975,0.142 2.964,0.174l1.798,0.057l3.304,-0.197l2.167,-0.317l0.52,-0.17c0.286,-0.093 0.568,-0.169 0.626,-0.169l0.106,-0l0.123,0.604c0.068,0.333 0.203,0.961 0.301,1.397c0.099,0.436 0.427,1.928 0.729,3.316l0.55,2.524l-0.158,0.207c-0.087,0.114 -0.321,0.299 -0.52,0.411l-0.362,0.204l-1.793,0.513l-2.872,0.435l-2.867,0.022c-1.577,0.012 -3.02,0.006 -3.207,-0.014l-0,0Zm0.235,-18.376c-0.913,-0.033 -1.911,-0.086 -2.217,-0.119l-0.557,-0.06l-0.101,-0.225l0.307,-1.361c0.168,-0.748 0.388,-1.717 0.489,-2.153c0.1,-0.435 0.317,-1.411 0.481,-2.167c0.165,-0.757 0.341,-1.545 0.391,-1.752c0.05,-0.206 0.227,-0.994 0.392,-1.751c0.594,-2.72 0.689,-3.138 0.884,-3.897l0.197,-0.77l0.462,-0.312l3.478,-0.026l0.494,0.333l0.151,0.564c0.083,0.311 0.243,0.996 0.355,1.523c0.111,0.528 0.243,1.128 0.293,1.335c0.051,0.206 0.225,0.994 0.389,1.751c0.163,0.756 0.338,1.544 0.388,1.751c0.051,0.206 0.226,0.994 0.389,1.751c0.164,0.757 0.338,1.544 0.388,1.751c0.05,0.206 0.184,0.807 0.297,1.334c0.113,0.527 0.265,1.216 0.337,1.53l0.131,0.572l-0.096,0.213l-0.407,0.056c-0.484,0.067 -4.239,0.213 -5.072,0.198c-0.321,-0.006 -1.33,-0.037 -2.243,-0.069l-0,-0Z" style="fill:#ee8774;fill-rule:nonzero;"/>
    <path id="path3" d="M26.744,62.623c-0.165,-0.036 -0.592,-0.193 -0.948,-0.348l-0.648,-0.283l-0.996,-0.64c-0.548,-0.352 -3.074,-2.11 -5.613,-3.907c-2.539,-1.797 -6.059,-4.285 -7.823,-5.53c-1.764,-1.244 -3.451,-2.47 -3.748,-2.724l-0.54,-0.461l-0.135,-0.415c-0.074,-0.229 -0.128,-0.491 -0.12,-0.584l0.014,-0.168l0.483,-0.358l0.905,-0.256c1.053,-0.297 11.551,-2.846 11.723,-2.846l0.116,-0l0,0.907l0.194,0.103l0,-0.053c0,-0.117 0.796,-3.836 0.826,-3.862c0.018,-0.015 0.31,0.158 0.648,0.386c1.365,0.916 3.33,1.478 6.544,1.87l0.875,0.107l5.734,-0.001l1.118,-0.154c1.431,-0.196 3.041,-0.546 4.047,-0.88l0.792,-0.263l0.618,-0.339c0.339,-0.187 0.755,-0.452 0.924,-0.59l0.306,-0.25l0.053,0.154c0.029,0.085 0.211,0.924 0.404,1.864c0.193,0.94 0.392,1.784 0.441,1.876l0.091,0.167l-0.046,-1.084l0.182,0.027c0.1,0.015 2.461,0.883 5.248,1.93c6.902,2.593 6.788,2.549 7.884,3.017l0.972,0.414l0.535,0.438l-0,0.354c-0,0.195 -0.042,0.449 -0.094,0.565l-0.093,0.211l-0.38,0.215c-0.209,0.119 -1.118,0.51 -2.021,0.869c-27.577,10.972 -25.174,10.027 -26.184,10.3l-0.763,0.207l-1.226,0.082l-0.299,-0.067Zm6.714,-8.69c0.481,-0.05 0.932,-0.118 1.003,-0.152l0.128,-0.061l-3.093,-0.006l-2.897,-0.039c-0.333,-0.033 -0.642,-0.08 -0.924,-0.146c-0.401,-0.098 -1.139,-0.253 -1.64,-0.345l-0.91,-0.167l-0.487,-0.044c0.096,0.053 0.216,0.127 0.375,0.168l0.138,0.053c0.17,0.092 1.466,0.339 3.01,0.576c1.49,0.228 1.498,0.228 3.061,0.242l1.361,0.013l0.875,-0.092Zm-4.471,-19.757c-2.358,-0.168 -4.499,-0.536 -5.571,-0.957l-0.552,-0.216l-0.534,-0.439l-0,-0.199c-0,-0.183 0.455,-2.366 1.177,-5.648c0.162,-0.734 0.319,-1.476 0.349,-1.649c0.074,-0.422 0.102,-0.427 0.921,-0.192l0.711,0.204l2.236,0.302l3.45,0l3.45,0.001l1.122,-0.147c0.939,-0.122 1.821,-0.3 2.627,-0.53l0.153,-0.044l0.111,0.444c0.149,0.596 1.35,6.133 1.539,7.094l0.062,0.314l-0.704,0.569l-1.538,0.509l-1.2,0.206c-1.657,0.285 -2.743,0.377 -4.893,0.419l-1.847,0.035l-1.069,-0.076Zm-0.777,-18.425c-0.749,-0.031 -1.547,-0.085 -1.774,-0.119l-0.413,-0.061l-0,-0.148c-0,-0.19 2.882,-13.121 3.016,-13.531c0.056,-0.17 0.168,-0.367 0.25,-0.437l0.149,-0.128l3.666,-0l0.367,0.401l0.111,0.446c0.061,0.245 0.243,1.046 0.404,1.779c0.487,2.221 2.44,11.074 2.496,11.319l0.052,0.229l-0.501,0.164l-1.628,0.084l-1.628,0.085l-1.603,-0.013c-0.882,-0.006 -2.216,-0.038 -2.964,-0.07l-0,0Z" style="fill:#e96750;fill-rule:nonzero;"/>
    <path id="path2" d="M26.891,62.539l-0.347,-0.061l-1.25,-0.606l-3.609,-2.39c-4.233,-2.9 -5.953,-4.053 -8.979,-6.351l-5.782,-4.096l-0.616,-0.851l-0.129,-0.503l0.13,-0.135c0.526,-0.577 2.347,-0.736 4.189,-1.27c2.828,-0.818 5.807,-1.475 8.72,-2.09l0.082,-0l0.041,0.423l-0.008,0.443l0.086,0.161c0.154,0.257 0.157,0.183 0.219,0.2l0.113,0.033l0.142,-0.379c0.094,-0.398 0.109,-0.255 0.53,-2.889l0.123,-0.771l0.068,-0c0.037,-0 0.803,0.531 1.258,0.739l0.828,0.378l0.843,0.244c1.005,0.291 2.207,0.521 3.792,0.723l1.166,0.149l5.637,0.004l1.118,-0.148c2.308,-0.306 4.295,-0.819 5.604,-1.447l0.6,-0.288l0.054,0.149c0.479,1.32 0.563,2.895 0.843,4.26l0.21,1.025l0.111,-0.03c0.06,-0.017 0.197,-0.178 0.304,-0.358l0.195,-0.328l-0,-2.293l0.087,0c0.129,0 11.289,4.196 12.652,4.757l1.174,0.483l0.617,0.445l-0,0.248c-0,0.309 -0.133,0.535 -0.522,0.89l-0.305,0.277l-0.534,0.214c-6.705,2.679 -13.411,5.354 -20.118,8.028c-0.992,0.396 -6.833,2.887 -8.504,3.03l-0.486,0.041l-0.347,-0.06Zm1.626,-0.937c0.052,-0.02 0.121,-0.046 0.133,-0.094c0.019,-0.085 -0.127,-0.198 -0.052,-0.255c0.191,-0.146 0.475,-0.16 0.708,-0.248c0.216,-0.081 0.785,-0.101 0.639,-0.26c-0.036,-0.039 -1.53,0.282 -1.541,0.283c-0.857,0.062 -1.359,0.09 -2.087,-0.153c-0.105,-0.035 -1.024,-0.448 -1.286,-0.462c-0.076,-0.004 0.107,0.095 0.172,0.129c0.329,0.17 0.677,0.313 1.008,0.48c0.175,0.088 0.468,0.116 0.508,0.286c0.031,0.126 -0.32,0.071 -0.396,0.182c-0.045,0.066 0.071,0.146 0.14,0.194c0.088,0.062 0.198,0.109 0.311,0.124c0.341,0.042 0.689,0.069 1.033,0.045c0.201,-0.014 0.391,-0.09 0.577,-0.156c0.053,-0.019 0.094,-0.058 0.133,-0.095Zm4.665,-7.492c0.331,-0.013 0.663,-0.025 0.988,-0.077c0.595,-0.093 1.191,-0.195 1.766,-0.355c0.051,-0.014 0.053,-0.136 0,-0.137c-2.445,-0.037 -4.894,0.121 -7.338,0.026c-1.281,-0.05 -3.698,-1.142 -4.919,-0.793c-0.033,0.01 0.022,0.066 0.055,0.077c0.885,0.28 1.777,0.546 2.678,0.789c1.442,0.388 3.057,0.505 4.551,0.535c0.74,0.015 2.219,-0.065 2.219,-0.065Zm-4.432,-20.025c-1.417,-0.099 -3.201,-0.359 -4.231,-0.615l-0.873,-0.218l-0.941,-0.439l-0.169,-0.27l0.483,-2.538c0.458,-2.406 0.909,-4.659 1.012,-5.051l0.047,-0.179l1.461,0.398l2.379,0.289l6.706,0l1.166,-0.144c1.169,-0.052 2.412,-0.711 2.564,-0.148c0.303,1.121 0.404,2.555 0.896,5.032l0.493,2.485l-0.123,0.127c-0.884,0.914 -6.545,1.576 -10.87,1.271l-0,0Zm-0.916,-18.416c-0.688,-0.039 -1.355,-0.093 -1.482,-0.12l-0.232,-0.05l0,-0.119c0,-0.713 0.289,-1.404 0.441,-2.104c0.632,-2.915 1.299,-5.825 1.94,-8.739l0.55,-2.501l0.325,-0.584l0.519,-0.052l1.032,0.02l0.714,-0.003c0.411,-0.035 0.916,-0.046 1.122,-0.025l0.374,0.038l0.269,0.552l0.874,4.154c0.124,0.59 1.88,8.799 1.911,9.342c0.011,0.193 -0.439,0.088 -0.662,0.115l-0.613,0.075l-5.832,0.071l-1.25,-0.07Zm5.376,-13.646c-0.021,-0.103 -0.045,-0.267 -0.124,-0.357c-0.028,-0.031 -0.109,-0.074 -0.15,-0.092c-0.015,-0.006 -0.038,-0.011 -0.048,0.008c-0.089,0.187 -0.014,0.48 0.017,0.661c0.021,0.125 0.045,0.385 0.126,0.518c0.017,0.028 0.072,-0.025 0.095,-0.05c0.07,-0.076 0.091,-0.101 0.094,-0.207c0.005,-0.16 -0.002,-0.321 -0.01,-0.481Z" style="fill:#f54927;fill-rule:nonzero;"/>
    <path d="M29.528,1.327l3.385,-0c0.102,0.219 -0.104,0.336 -0.471,0.443c-0.949,0.227 -1.668,0.191 -2.441,0.012c-0.363,-0.061 -0.492,-0.189 -0.473,-0.455Z" style="fill-opacity:0.25;"/>
    <path id="path1" d="M27.605,60.645c-0,-0.133 -0.03,-0.335 -0.066,-0.449c-0.037,-0.115 -0.086,-0.34 -0.109,-0.501c-0.024,-0.16 -0.063,-0.385 -0.086,-0.5c-0.024,-0.115 -0.068,-0.33 -0.099,-0.479c-0.031,-0.149 -0.075,-0.382 -0.099,-0.516c-0.024,-0.135 -0.084,-0.388 -0.134,-0.563c-0.102,-0.358 -0.1,-0.343 -0.153,-1.485l-0.038,-0.834l0.234,-0.417c0.128,-0.23 0.294,-0.485 0.369,-0.568l0.136,-0.152l0.325,-0.01c0.178,-0.005 0.871,0.04 1.539,0.101l1.215,0.11l3.694,-0.182l1.117,-0.213c3.003,-0.881 3.409,-1.035 4.679,-1.867c0.248,-0.162 1.88,-1.327 2.291,-1.89c0.986,-1.354 1.018,-3.384 1.142,-3.384l0.044,-1.115l-0.01,-1.212c0.079,-0.189 6.215,2.241 6.215,2.241l1.307,0.473c0.449,0.083 3.39,1.189 4.941,1.856l1.298,0.559l0.187,0.27l-0.664,0.515l-0.729,0.303c-1.131,0.471 -7.445,2.957 -11.322,4.457c-1.924,0.744 -3.718,1.439 -3.985,1.544c-1.09,0.428 -1.739,0.667 -3.547,1.304c-1.043,0.367 -2.027,0.718 -2.187,0.781c-0.792,0.309 -4.118,1.391 -5.103,1.661l-1.117,0.305l-1.286,0.097l0.001,-0.24Zm-3.286,-0.185c-0.774,-0.404 -1.182,-0.652 -1.757,-1.066c-0.261,-0.188 -2.575,-1.784 -5.14,-3.545c-5.717,-3.925 -10.069,-6.956 -10.612,-7.39l-0.407,-0.325l-0.131,-0.448l0.113,-0.117c0.062,-0.064 0.304,-0.194 0.539,-0.288l0.425,-0.172l4.405,-1.079c5.683,-1.391 7.368,-1.789 7.411,-1.75c0.019,0.017 0.006,0.374 -0.029,0.794l-0.064,0.763c0.159,1.199 0.096,2.13 0.216,2.765c0.057,1.528 1.254,3.147 1.932,3.652l1.45,0.676l1.798,0.474c0.989,0.261 1.813,0.486 1.832,0.5c0.018,0.014 -0.15,0.074 -0.375,0.131l-0.408,0.105l-0.279,0.366l0.002,0.698c0.002,0.383 0.019,0.81 0.039,0.948c0.019,0.137 0.109,0.813 0.198,1.5c0.216,1.668 0.35,2.552 0.416,2.743l0.054,0.157l-0.278,-0.058c-0.153,-0.032 -0.576,-0.21 -0.941,-0.394c-0.799,-0.405 -0.92,-0.379 -0.287,0.062c0.255,0.178 0.549,0.389 0.653,0.47l0.188,0.147l-0.377,-0.014l-0.586,-0.305Z" style="fill:#fe490d;fill-rule:nonzero;"/>
    <path d="M43.309,48.219l0.404,0.031c0.007,0.074 0.009,0.147 0.008,0.222c-0.04,2.794 -5.583,5.005 -12.37,4.934c-6.004,-0.063 -10.406,-2.065 -11.958,-4.249c-0.213,-0.298 -0.381,-0.748 -0.533,-1.037c-0.193,-0.366 -0.425,-0.638 -0.486,-0.761c-0.171,-0.343 -0.295,-0.74 -0.088,-1.032c0.26,-0.368 0.888,-0.751 1.2,-0.797c0.231,-0.034 -0.084,0.584 -0.125,0.854c-0.076,0.502 -0.115,0.873 0.131,1.634c0.916,2.837 6.031,4.344 11.893,4.78c3.564,0.265 7.267,-0.627 9.968,-2.185c0.846,-0.488 1.366,-1.088 1.786,-2.142c0.036,-0.091 0.115,-0.166 0.17,-0.252Z" style="fill-opacity:0.25;"/>
</svg>
